# AST/ASF file generated using VICON BodyLanguage
# -----------------------------------------------
:version 1.10
:name VICON
:units
  mass 1.0
  length 0.45
  angle deg
:documentation
   .ast/.asf automatically generated from VICON data using
   VICON BodyBuilder and BodyLanguage model FoxedUp or BRILLIANT.MOD
:root
   order TX TY TZ RX RY RZ
   axis XYZ
   position 0 0 0  
   orientation 0 0 0 
:bonedata
  begin
     id 1 
     name lhipjoint
     direction 0.678564 -0.644259 0.352817 
     length 2.99514 
     axis 0 0 0  XYZ
  end
  begin
     id 2 
     name lfemur
     direction 0.34202 -0.939693 0  
     length 7.29983  
     axis 0 0 20  XYZ
    dof rx ry rz
    limits (-160.0 20.0)
           (-70.0 70.0)
           (-60.0 70.0)
  end
  begin
     id 3 
     name ltibia
     direction 0.34202 -0.939693 0   
     length 8.59502   
     axis 0 0 20   XYZ
    dof rx
    limits (-10.0 170.0)
  end
  begin
     id 4 
     name lfoot
     direction 0.256607 -0.705022 0.661133   
     length 2.92136   
     axis -90 7.62852e-016 20   XYZ
    dof rx rz
    limits (-45.0 90.0)
           (-70.0 20.0)
  end
  begin
     id 5 
     name ltoes
     direction 1.53673e-011 -4.22167e-011 1   
     length 1.31421   
     axis -90 7.62852e-016 20   XYZ
    dof rx
    limits (-90.0 20.0)
  end
  begin
     id 6 
     name rhipjoint
     direction -0.664671 -0.655307 0.358867   
     length 2.94464  
     axis 0 0 0  XYZ 
  end
  begin
     id 7 
     name rfemur
     direction -0.34202 -0.939693 0   
     length 7.1902   
     axis 0 0 -20   XYZ
    dof rx ry rz
    limits (-160.0 20.0)
           (-70.0 70.0)
           (-70.0 60.0)
  end
  begin
     id 8 
     name rtibia
     direction -0.342306 -0.939589 0   
     length 7.92304   
     axis 0 0 -20   XYZ
    dof rx
    limits (-10.0 170.0)
 end
 begin
     id 9 
     name rfoot
     direction -0.135083 -0.371136 0.9187   
     length 2.14777  
     axis -90 -7.62852e-016 -20   XYZ
    dof rx rz
    limits (-45.0 90.0)
           (-20.0 70.0)
  end
  begin
     id 10 
     name rtoes
     direction -1.53535e-011 -4.21537e-011 1   
     length 1.05997   
     axis -90 -7.62852e-016 -20   XYZ
    dof rx
    limits (-90.0 20.0)
  end
  begin
     id 11 
     name lowerback
     direction -0.0195507 0.995133 0.0965771   
     length 2.09792   
     axis 0 0 0   XYZ
    dof rx ry rz
    limits (-20.0 45.0)
           (-30.0 30.0)
           (-30.0 30.0)
  end
  begin
     id 12 
     name upperback
     direction 0.00551419 0.999637 0.0263729   
     length 2.10514   
     axis 0 0 0   XYZ
    dof rx ry rz
    limits (-20.0 45.0)
           (-30.0 30.0)
           (-30.0 30.0)
  end
  begin
     id 13 
     name thorax
     direction 0.0138853 0.999728 -0.0187549   
     length 2.12411   
     axis 0 0 0   XYZ
    dof rx ry rz
    limits (-20.0 45.0)
           (-30.0 30.0)
           (-30.0 30.0)
  end
  begin
     id 14 
     name lowerneck
     direction 0.00575564 0.995441 0.0952053   
     length 2.98955   
     axis 0 0 0   XYZ
    dof rx ry rz
    limits (-20.0 45.0)
           (-30.0 30.0)
           (-30.0 30.0)
  end
  begin
     id 15 
     name upperneck
     direction 0.0362743 0.998452 -0.0421753   
     length 3.03688   
     axis 0 0 0   XYZ
    dof rx ry rz
    limits (-20.0 45.0)
           (-30.0 30.0)
           (-30.0 30.0)
  end
  begin
     id 16
     name head
     direction -0.0138164 0.799054 0.6011  
     length 1.47017  
     axis 0 0 0   XYZ
    dof rx ry rz
    limits (-20.0 45.0)
           (-30.0 30.0)
           (-30.0 30.0)
  end
  begin
     id 17 
     name lclavicle
     direction 0.925636 0.378361 -0.006363  
     length 3.33831  
     axis 0 0 0   XYZ
    dof ry rz
    limits (-20.0 10.0)
           (0.0 20.0)
  end
  begin
     id 18 
     name lhumerus
     direction 1 -4.48983e-011 -5.50319e-028   
     length 4.79344   
     axis -180 -30 -90   XYZ
    dof rx ry rz
    limits (-60.0 90.0)
           (-90.0 90.0)
           (-90.0 90.0)
  end
  begin
     id 19
     name lradius
     direction 1 -4.48905e-011 9.20478e-027   
     length 2.94221   
     axis -180 -30 -90   XYZ
    dof rx
    limits (-10.0 170.0)
  end
  begin
     id 20
     name lwrist
     direction 1 -4.4898e-011 2.08228e-026   
     length 1.4711   
     axis -1.38353e-014 90 90   XYZ
    dof ry
    limits (-180.0 0.0)
 end
  begin
     id 21 
     name lhand
     direction 1 -4.48957e-011 4.16456e-026   
     length 0.889984   
     axis -2.65735e-014 90 90   XYZ
    dof rx rz
    limits (-90.0 90.0)
           (-45.0 45.0)
  end
  begin
     id 22 
     name lfingers
     direction 1 -4.49044e-011 8.32913e-026   
     length 0.717528   
     axis -5.3147e-014 90 90   XYZ
    dof rx
    limits (0.0 90.0)
  end
  begin
     id 23
     name lthumb
     direction 0.707107 -6.35171e-011 0.707107   
     length 1.03023   
     axis -90 45 2.85299e-015   XYZ
    dof rx rz
    limits (-45.0 45.0)
           (-45.0 45.0)
  end
  begin
     id 24 
     name rclavicle
     direction -0.892514 0.445149 0.0725343   
     length 3.17271  
     axis 0 0 0   XYZ 
    dof ry rz
    limits (-10.0 20.0)
           (-20.0 0.0)
  end
  begin
     id 25 
     name rhumerus
     direction -1 -4.48952e-011 5.59695e-028  
     length 5.4863   
     axis -180 30 90   XYZ
    dof rx ry rz
    limits (-90.0 60.0)
           (-90.0 90.0)
           (-90.0 90.0)
  end
  begin
     id 26 
     name rradius
     direction -1 -4.48963e-011 1.14146e-026   
     length 3.17201   
     axis -180 30 90   XYZ
    dof rx
    limits (-10.0 170.0)
  end
  begin
     id 27 
     name rwrist
     direction -1 -4.49046e-011 2.08228e-026   
     length 1.58601   
     axis -1.38353e-014 -90 -90   XYZ
    dof ry
    limits (-180.0 0.0)
  end
  begin
     id 28
     name rhand
     direction -1 -4.48815e-011 4.16456e-026   
     length 0.874513   
     axis -2.65735e-014 -90 -90   XYZ
    dof rx rz
    limits (-90.0 90.0)
           (-45.0 45.0)
  end
  begin
     id 29
     name rfingers
     direction -1 -4.48918e-011 8.32913e-026   
     length 0.705055   
     axis -5.3147e-014 -90 -90   XYZ
    dof rx
    limits (0.0 90.0)
  end
  begin
     id 30
     name rthumb
     direction -0.707107 -6.34858e-011 0.707107   
     length 1.01232   
     axis -90 -45 -2.85299e-015   XYZ
    dof rx rz
    limits (-45.0 45.0)
           (-45.0 45.0)
  end
:hierarchy
  begin
    root lhipjoint rhipjoint lowerback
    lhipjoint lfemur
    lfemur ltibia
    ltibia lfoot
    lfoot ltoes
    rhipjoint rfemur
    rfemur rtibia
    rtibia rfoot
    rfoot rtoes
    lowerback upperback
    upperback thorax
    thorax lowerneck lclavicle rclavicle
    lowerneck upperneck
    upperneck head
    lclavicle lhumerus
    lhumerus lradius
    lradius lwrist
    lwrist lhand lthumb
    lhand lfingers
    rclavicle rhumerus
    rhumerus rradius
    rradius rwrist
    rwrist rhand rthumb
    rhand rfingers
  end

#!OML:ASF F:\VICON\USERDATA\INSTALL\rory3\rory3.ASF
:FULLY-SPECIFIED
:DEGREES
454
root 3.35483 18.4939 -0.711342 -7.96454 87.9036 -21.0782
lowerback -12.6794 -0.644159 -0.914903
upperback -5.43557 -0.555488 2.0463
thorax 1.44171 -0.139533 2.5721
lowerneck -21.4146 -11.0544 4.5489
upperneck 2.74598 36.9512 2.59593
head 27.62 35.1892 180.682
rclavicle 3.37934e-015 -1.98785e-015
rhumerus -9.35212 13.2575 -72.1242
rradius 116.847
rwrist -2.5917
rhand -31.7856 -1.27304
rfingers 7.12502
rthumb -5.0417 -31.1931
lclavicle 3.37934e-015 -1.98785e-015
lhumerus -12.4914 -17.7634 80.8534
lradius 109.078
lwrist 11.5474
lhand -38.6187 -12.5916
lfingers 7.12502
lthumb -11.636 17.0653
rfemur -11.7131 17.9301 18.2541
rtibia 10.9622
rfoot -17.5325 -18.5238
rtoes -14.5383
lfemur -12.9149 -3.7552 -21.898
ltibia 16.3491
lfoot -2.85853 4.4562
ltoes -9.95551
455
root 3.35553 18.4937 -0.709699 -7.91343 87.8785 -21.04
lowerback -12.6722 -0.631584 -0.922123
upperback -5.44098 -0.537574 2.03513
thorax 1.43122 -0.130431 2.56698
lowerneck -21.4125 -11.0619 4.53998
upperneck 2.74431 36.9366 2.59599
head 27.618 35.2081 180.684
rclavicle 2.73329e-016 7.15625e-015
rhumerus -9.37569 13.2319 -72.15
rradius 116.86
rwrist -2.51864
rhand -31.7509 -1.32648
rfingers 7.12502
rthumb -5.00821 -31.2473
lclavicle 2.73329e-016 7.15625e-015
lhumerus -12.5012 -17.7529 80.8345
lradius 109.074
lwrist 11.614
lhand -38.5686 -12.806
lfingers 7.12502
lthumb -11.5877 16.8536
rfemur -11.7215 18.0467 18.2473
rtibia 10.9553
rfoot -17.5386 -18.6083
rtoes -14.3513
lfemur -12.9272 -3.72147 -21.8902
ltibia 16.3376
lfoot -2.88944 4.47386
ltoes -9.93585
456
root 3.35534 18.4931 -0.708798 -6.81697 87.8678 -19.9547
lowerback -12.6625 -0.617388 -0.972774
upperback -5.43839 -0.513017 2.01402
thorax 1.42767 -0.117953 2.57697
lowerneck -21.4015 -11.0788 4.52585
upperneck 2.73792 36.8715 2.59797
head 27.5845 35.1854 180.657
rclavicle -4.82053e-015 3.97569e-015
rhumerus -9.38053 13.1947 -72.1507
rradius 116.883
rwrist -2.52308
rhand -31.7516 -1.38256
rfingers 7.12502
rthumb -5.00892 -31.3034
lclavicle -4.82053e-015 3.97569e-015
lhumerus -12.4392 -17.778 80.8268
lradius 109.068
lwrist 11.7191
lhand -38.5662 -12.805
lfingers 7.12502
lthumb -11.5853 16.8547
rfemur -11.7296 18.0861 18.2104
rtibia 10.9594
rfoot -17.5364 -18.6467
rtoes -14.099
lfemur -12.9375 -3.73115 -21.9224
ltibia 16.3221
lfoot -2.91679 4.44894
ltoes -9.92132
457
root 3.357 18.492 -0.709008 -7.91159 87.8619 -21.0582
lowerback -12.6583 -0.61627 -0.938971
upperback -5.46923 -0.513298 2.01647
thorax 1.39298 -0.117157 2.56039
lowerneck -21.327 -11.0909 4.53138
upperneck 2.77421 36.8986 2.62691
head 27.5967 35.2325 180.649
rclavicle -5.96354e-015 1.59028e-015
rhumerus -9.45158 13.1989 -72.1811
rradius 116.895
rwrist -2.50144
rhand -31.7877 -1.33873
rfingers 7.12502
rthumb -5.04373 -31.2587
lclavicle -5.96354e-015 1.59028e-015
lhumerus -12.5122 -17.7909 80.8461
lradius 109.093
lwrist 11.7165
lhand -38.5601 -12.7246
lfingers 7.12502
lthumb -11.5795 16.9355
rfemur -11.7185 18.0821 18.2543
rtibia 10.9339
rfoot -17.5432 -18.6219
rtoes -13.8203
lfemur -12.9485 -3.7387 -21.881
ltibia 16.3282
lfoot -2.91246 4.43177
ltoes -9.90572
458
root 3.35909 18.4917 -0.708613 -6.26762 87.8628 -19.4166
lowerback -12.6597 -0.629106 -1.0252
upperback -5.49777 -0.518517 2.00636
thorax 1.36475 -0.117646 2.59794
lowerneck -21.2628 -11.0967 4.53698
upperneck 2.81149 36.9738 2.64518
head 27.639 35.2961 180.679
rclavicle -2.98177e-015 -9.93923e-015
rhumerus -9.51205 13.2219 -72.1881
rradius 116.918
rwrist -2.54563
rhand -31.8031 -1.31668
rfingers 7.12502
rthumb -5.05863 -31.2363
lclavicle -2.98177e-015 -9.93923e-015
lhumerus -12.6176 -17.7625 80.91
lradius 109.109
lwrist 11.685
lhand -38.5484 -12.6751
lfingers 7.12502
lthumb -11.5682 16.9856
rfemur -11.7119 18.0836 18.1882
rtibia 10.9073
rfoot -17.5159 -18.6392
rtoes -14.0938
lfemur -12.9366 -3.7144 -21.9513
ltibia 16.3222
lfoot -2.92104 4.44881
ltoes -9.91055
459
root 3.36036 18.4918 -0.708719 -7.10117 87.8617 -20.2619
lowerback -12.6922 -0.619536 -0.992448
upperback -5.4949 -0.509125 1.99989
thorax 1.38451 -0.113529 2.57392
lowerneck -21.2284 -11.119 4.53986
upperneck 2.81789 36.9385 2.64917
head 27.6269 35.2672 180.679
rclavicle 2.95692e-015 9.14409e-015
rhumerus -9.51562 13.178 -72.1873
rradius 116.932
rwrist -2.56409
rhand -31.7381 -1.29898
rfingers 7.12502
rthumb -4.99584 -31.2201
lclavicle 2.95692e-015 9.14409e-015
lhumerus -12.6398 -17.7603 80.902
lradius 109.142
lwrist 11.7247
lhand -38.4715 -12.8456
lfingers 7.12502
lthumb -11.494 16.8193
rfemur -11.7047 18.0871 18.2209
rtibia 10.8562
rfoot -17.4549 -18.6748
rtoes -14.2301
lfemur -12.9539 -3.70857 -21.9171
ltibia 16.3447
lfoot -2.85237 4.45212
ltoes -9.81294
460
root 3.36237 18.4932 -0.709798 -7.49778 87.8708 -20.67
lowerback -12.7238 -0.626633 -0.971092
upperback -5.48217 -0.521445 2.00274
thorax 1.41532 -0.120439 2.56311
lowerneck -21.2219 -11.1242 4.54226
upperneck 2.80728 36.8974 2.63594
head 27.6042 35.1925 180.684
rclavicle 2.85753e-015 -2.8625e-014
rhumerus -9.5378 13.1881 -72.182
rradius 116.979
rwrist -2.52786
rhand -31.7645 -1.289
rfingers 7.12502
rthumb -5.02139 -31.2095
lclavicle 2.85753e-015 -2.8625e-014
lhumerus -12.6636 -17.7132 80.9128
lradius 109.151
lwrist 11.7329
lhand -38.4603 -12.9604
lfingers 7.12502
lthumb -11.4832 16.7051
rfemur -11.7228 18.06 18.2306
rtibia 10.8733
rfoot -17.4833 -18.6809
rtoes -14.2657
lfemur -12.9496 -3.74679 -21.9045
ltibia 16.3371
lfoot -2.85146 4.43581
ltoes -9.85075
461
root 3.36316 18.4934 -0.710538 -7.73685 87.8754 -20.9094
lowerback -12.7405 -0.646358 -0.966232
upperback -5.46529 -0.549509 2.0273
thorax 1.44354 -0.134908 2.58214
lowerneck -21.2246 -11.1054 4.5061
upperneck 2.79705 36.9204 2.6095
head 27.6037 35.1779 180.707
rclavicle 2.48481e-015 1.43125e-014
rhumerus -9.51409 13.2442 -72.1473
rradius 117.002
rwrist -2.54126
rhand -31.7512 -1.28327
rfingers 7.12502
rthumb -5.00853 -31.2041
lclavicle 2.48481e-015 1.43125e-014
lhumerus -12.6798 -17.6432 80.9505
lradius 109.153
lwrist 11.6885
lhand -38.4898 -12.9064
lfingers 7.12502
lthumb -11.5117 16.7575
rfemur -11.7013 18.0621 18.2295
rtibia 10.8477
rfoot -17.5129 -18.6467
rtoes -14.227
lfemur -12.9622 -3.72731 -21.9011
ltibia 16.362
lfoot -2.88598 4.49471
ltoes -9.92062
462
root 3.36317 18.4921 -0.710257 -5.84996 87.8967 -19.0415
lowerback -12.7481 -0.655349 -1.05842
upperback -5.47172 -0.550015 2.0025
thorax 1.44156 -0.134127 2.60834
lowerneck -21.213 -11.0934 4.49818
upperneck 2.82107 36.9835 2.63621
head 27.6281 35.2827 180.68
rclavicle 1.16786e-015 -1.59028e-015
rhumerus -9.4882 13.2351 -72.145
rradius 116.98
rwrist -2.60508
rhand -31.7469 -1.19615
rfingers 7.12502
rthumb -5.00431 -31.1171
lclavicle 1.16786e-015 -1.59028e-015
lhumerus -12.6831 -17.6667 80.962
lradius 109.116
lwrist 11.607
lhand -38.5739 -12.8375
lfingers 7.12502
lthumb -11.5928 16.8218
rfemur -11.6951 18.0156 18.1477
rtibia 10.8017
rfoot -17.4781 -18.614
rtoes -13.8931
lfemur -13.0019 -3.75447 -21.9742
ltibia 16.393
lfoot -2.86631 4.51472
ltoes -9.91045
463
root 3.36212 18.4912 -0.708395 -6.93067 87.8876 -20.1366
lowerback -12.7323 -0.635186 -1.03064
upperback -5.49374 -0.524833 1.98557
thorax 1.40835 -0.121137 2.57843
lowerneck -21.1694 -11.1182 4.52058
upperneck 2.8567 37.0204 2.6741
head 27.6702 35.3991 180.693
rclavicle -1.32937e-014 1.27222e-014
rhumerus -9.5335 13.1891 -72.1812
rradius 116.987
rwrist -2.62016
rhand -31.7854 -1.20221
rfingers 7.12502
rthumb -5.04154 -31.1222
lclavicle -1.32937e-014 1.27222e-014
lhumerus -12.7118 -17.7383 80.9399
lradius 109.129
lwrist 11.5655
lhand -38.632 -12.7537
lfingers 7.12502
lthumb -11.6488 16.9025
rfemur -11.6866 18.0997 18.1926
rtibia 10.7507
rfoot -17.4278 -18.6892
rtoes -13.7703
lfemur -13.0437 -3.77539 -21.9156
ltibia 16.4243
lfoot -2.80779 4.49178
ltoes -9.90928
464
root 3.36374 18.4925 -0.708272 -9.92182 87.8792 -23.1278
lowerback -12.7375 -0.625981 -0.909936
upperback -5.49901 -0.525998 1.99614
thorax 1.40479 -0.122805 2.521
lowerneck -21.1334 -11.1356 4.5191
upperneck 2.854 36.9301 2.68249
head 27.6214 35.3528 180.659
rclavicle 4.22417e-016 7.95139e-016
rhumerus -9.58667 13.1726 -72.2294
rradius 116.992
rwrist -2.60656
rhand -31.85 -1.12253
rfingers 7.12502
rthumb -5.10387 -31.0411
lclavicle 4.22417e-016 7.95139e-016
lhumerus -12.7216 -17.7481 80.9206
lradius 109.163
lwrist 11.5973
lhand -38.618 -12.6674
lfingers 7.12502
lthumb -11.6353 16.9895
rfemur -11.6696 18.06 18.3251
rtibia 10.7462
rfoot -17.4249 -18.6427
rtoes -13.949
lfemur -13.0367 -3.76591 -21.7933
ltibia 16.4152
lfoot -2.8626 4.46451
ltoes -9.97207
465
root 3.36696 18.4936 -0.710092 -10.1317 87.9002 -23.3386
lowerback -12.7582 -0.625484 -0.886351
upperback -5.49438 -0.52789 1.98692
thorax 1.42065 -0.124335 2.49775
lowerneck -21.128 -11.129 4.48283
upperneck 2.85409 36.9175 2.68781
head 27.5989 35.3858 180.616
rclavicle 4.72114e-015 -8.34896e-015
rhumerus -9.59078 13.15 -72.2293
rradius 116.973
rwrist -2.52538
rhand -31.8025 -1.09022
rfingers 7.12502
rthumb -5.05806 -31.0099
lclavicle 4.72114e-015 -8.34896e-015
lhumerus -12.6995 -17.7472 80.9237
lradius 109.143
lwrist 11.6239
lhand -38.5797 -12.6129
lfingers 7.12502
lthumb -11.5983 17.0461
rfemur -11.6448 17.9726 18.332
rtibia 10.7549
rfoot -17.4831 -18.5759
rtoes -13.8719
lfemur -13.0057 -3.79341 -21.795
ltibia 16.384
lfoot -2.87723 4.46869
ltoes -9.99755
